{"title":"Crimson.Peak.2015.WEBRip.480p.x264.AAC-VYTO [P2PDL]","uid":12958139,"size":481376260,"categoryP":"video","categoryS":"movies","magnet":"?xt=urn:btih:aa559362aa68280e7e122a1178b93393ad178925&amp;dn=Crimson.Peak.2015.WEBRip.480p.x264.AAC-VYTO+%5BP2PDL%5D&amp;tr=udp%3A%2F%2Ftracker.leechers-paradise.org%3A6969&amp;tr=udp%3A%2F%2Fzer0day.ch%3A1337&amp;tr=udp%3A%2F%2Fopen.demonii.com%3A1337&amp;tr=udp%3A%2F%2Ftracker.coppersurfer.tk%3A6969&amp;tr=udp%3A%2F%2Fexodus.desync.com%3A6969","seeders":1,"leechers":1,"uploader":"VYTOP2PDL","files":7,"time":1449813225,"description":"____    ____ ____    ____ .___________.  ______   \r\n     /   /      /   / |           | /  __    \r\n    /   /      /   /  `---|  |----`|  |  |  | \r\n        /     _    _/       |  |     |  |  |  | \r\n       /        |  |         |  |     |  `--'  | \r\n    __/         |__|         |__|      ______/  \r\n                                                  \r\nPresenting Small Encodes with quality for years!\r\n                                                                                                   \r\n                                                                                                   \r\n\r\nCrimson.Peak.2015.WEBRip.480p.x264.AAC-VYTO\r\n\r\n\r\nGenre: Drama, Fantasy, Horror     \nhttp://www.imdb.com/title/tt2554274/\r\n\r\n\r\nFormat                                   : MPEG-4\r\nFile size                                : 451 MiB\r\nDuration                                 : 1h 58mn\r\nOverall bit rate                         : 532 Kbps\r\n\r\nVideo\r\nFormat                                   : AVC\r\nBit rate                                 : 489 Kbps\r\nWidth                                    : 720 pixels\r\nHeight                                   : 384 pixels\r\nDisplay aspect ratio                     : 1.85:1\r\nFrame rate mode                          : Constant\r\nFrame rate                               : 23.976 fps\r\nBit depth                                : 8 bits\r\nStream size                              : 415 MiB (92%)\r\nWriting library                          : x264\r\n\r\nAudio\r\nFormat                                   : AAC\r\nBit rate mode                            : Variable\r\nBit rate                                 : 40.0 Kbps\r\nChannel(s)                               : 2 channels\r\nChannel positions                        : Front: L R\r\nSampling rate                            : 48.0 KHz \r\nStream size                              : 33.9 MiB (8%)\r\nLanguage                                 : English\r\n\r\nSubtitle                                 : Yes (English)\r\n\r\nScreen Shots: (Click to view)\r\n \nhttp://ititli.com/5D \nhttp://ititli.com/5a \nhttp://ititli.com/5b \nhttp://ititli.com/5z \nhttp://ititli.com/5I \nhttp://ititli.com/5O \nhttp://ititli.com/B9 \nhttp://ititli.com/BX \nhttp://ititli.com/Bq\r\n\r\n----------------------------------------------------------------------------------------------------\r\n\r\n\r\nEncoder Notes: Looking For Early Access To Anything You Can Provide WEBDL, DVDScr, DVDR, BluRay,\r\nDirect Audio, Music Releases and Seedboxes. If You Got anything to offer please contact us.\r\n\r\nSupport us by donating BC - 1FgwdzPsd1y25Gea8wP1qni35uGCtmkRCD\r\n\r\nSend some love!\r\nFind us and join us!","torrent":{"xt":"urn:btih:aa559362aa68280e7e122a1178b93393ad178925","amp;dn":"Crimson.Peak.2015.WEBRip.480p.x264.AAC-VYTO+%5BP2PDL%5D","amp;tr":["udp%3A%2F%2Ftracker.leechers-paradise.org%3A6969","udp%3A%2F%2Fzer0day.ch%3A1337","udp%3A%2F%2Fopen.demonii.com%3A1337","udp%3A%2F%2Ftracker.coppersurfer.tk%3A6969","udp%3A%2F%2Fexodus.desync.com%3A6969"],"infoHash":"aa559362aa68280e7e122a1178b93393ad178925","infoHashBuffer":{"type":"Buffer","data":[170,85,147,98,170,104,40,14,126,18,42,17,120,185,51,147,173,23,137,37]},"announce":[],"urlList":[]}}